# xmcd
#
# Track frame offsets:
# 150
# 59000
# 133874
# 148506
# 224851
#
# Disc length: 3461 seconds
#
# Revision: 0
# Processed by: cddbd v1.4PL0 Copyright (c) Steve Scherf et al.
# Submitted via: Audion 2.5.0 (http://www.panic.com/audion/)
#
DISCID=590d8305
DTITLE=Meshkatian/Shajarian - Dood-e-Ood
DYEAR=1900
DGENRE=
TTITLE0=Pishdaramad
TTITLE1=Avaz
TTITLE2=Chaharmezrab-Nahoft
TTITLE3=Avaz-Nahoft
TTITLE4=Tasnif
EXTD=
EXTT0=
EXTT1=
EXTT2=
EXTT3=
EXTT4=
PLAYORDER=
